<?xml version="1.0" standalone="no"?>
<!DOCTYPE svg PUBLIC "-//W3C//DTD SVG 20010904//EN"
 "http://www.w3.org/TR/2001/REC-SVG-20010904/DTD/svg10.dtd">
<svg version="1.0" xmlns="http://www.w3.org/2000/svg"
 width="279.000000pt" height="181.000000pt" viewBox="0 0 279.000000 181.000000"
 preserveAspectRatio="xMidYMid meet">
<metadata>
Created by potrace 1.10, written by Peter Selinger 2001-2011
</metadata>
<g transform="translate(0.000000,181.000000) scale(0.100000,-0.100000)"
fill="#000000" stroke="none">
<path d="M1295 1559 c-136 -28 -260 -124 -318 -246 -29 -62 -32 -77 -32 -163
1 -123 25 -187 102 -271 97 -104 202 -149 349 -149 443 0 619 534 253 766 -93
59 -243 85 -354 63z m217 -40 c73 -19 148 -61 199 -111 27 -27 46 -48 43 -48
-4 0 0 -8 8 -17 48 -57 71 -220 42 -304 -16 -44 -43 -101 -53 -109 -3 -3 -23
-24 -43 -48 -21 -23 -38 -39 -38 -35 0 3 -10 -3 -22 -14 -37 -32 -137 -64
-220 -70 -96 -7 -186 11 -251 49 -26 15 -50 28 -52 28 -14 0 -125 137 -130
160 -1 3 -7 23 -13 45 -16 55 -15 151 3 211 8 27 13 51 12 54 -5 14 140 160
159 160 9 0 12 5 8 13 -4 6 -4 9 0 5 4 -3 29 3 54 14 83 35 201 42 294 17z"/>
<path d="M1362 1407 c-17 -18 -51 -82 -57 -107 -1 -3 -16 -36 -34 -75 -105
-227 -124 -277 -114 -294 12 -19 79 -27 98 -11 7 6 26 42 41 80 30 71 42 82
64 55 7 -8 18 -15 25 -15 7 0 15 -7 19 -15 3 -8 12 -15 21 -15 8 0 15 -4 15
-8 0 -16 119 -92 144 -92 25 0 56 32 56 57 0 7 -12 38 -26 70 -15 32 -28 63
-30 68 -1 6 -27 65 -58 132 -31 67 -56 126 -56 131 0 17 -49 62 -68 62 -10 0
-28 -10 -40 -23z m160 -227 c97 -216 103 -240 59 -240 -9 0 -68 39 -131 86
-63 47 -118 86 -122 87 -5 1 -26 -36 -46 -83 -38 -83 -39 -85 -76 -88 -33 -3
-36 -1 -28 15 9 17 129 280 178 391 20 45 27 53 46 50 19 -2 38 -37 120 -218z"/>
<path d="M1394 1295 c-4 -11 -17 -43 -29 -71 l-23 -51 89 -66 c49 -36 89 -65
89 -63 0 1 -10 22 -22 47 -11 24 -38 84 -59 134 -30 71 -39 86 -45 70z m41
-134 l7 -23 -31 18 c-34 20 -36 26 -20 56 12 22 12 22 24 -3 7 -13 16 -35 20
-48z"/>
<path d="M567 544 c-35 -79 -42 -105 -30 -102 8 2 23 22 32 45 l16 43 59 -46
c32 -25 60 -43 64 -40 11 12 -70 206 -86 206 -4 0 -29 -48 -55 -106z m94 -16
c9 -21 15 -38 13 -38 -9 0 -74 55 -74 62 0 4 5 19 11 35 l11 28 11 -25 c6 -14
18 -42 28 -62z"/>
<path d="M830 546 c0 -80 3 -106 13 -106 9 0 12 17 9 68 -7 125 -2 127 52 25
35 -65 55 -93 68 -93 16 0 18 10 18 105 0 90 -2 105 -16 105 -14 0 -16 -11
-12 -85 2 -47 2 -85 -1 -84 -3 0 -25 37 -47 82 -30 59 -48 83 -63 85 -20 3
-21 -1 -21 -102z"/>
<path d="M1143 635 c-25 -18 -30 -56 -10 -73 6 -6 37 -16 67 -24 44 -10 56
-17 58 -35 6 -39 -44 -50 -120 -27 -12 3 -18 0 -18 -9 0 -24 88 -32 134 -13
30 13 36 20 36 45 0 37 -26 56 -88 66 -47 8 -62 26 -41 51 10 13 25 15 67 11
38 -4 52 -2 49 6 -6 19 -108 20 -134 2z"/>
<path d="M1400 545 c0 -87 3 -105 15 -105 12 0 15 18 15 105 0 87 -3 105 -15
105 -12 0 -15 -18 -15 -105z"/>
<path d="M1570 545 l0 -105 58 0 c75 0 106 16 110 57 2 23 -3 35 -18 46 -17
12 -18 15 -5 20 22 9 20 64 -4 77 -11 5 -47 10 -80 10 l-61 0 0 -105z m125 55
c0 -22 -5 -26 -43 -31 -50 -6 -52 -5 -52 33 0 28 1 29 48 26 43 -3 47 -5 47
-28z m13 -93 c4 -30 -1 -33 -65 -40 l-43 -5 0 39 0 40 53 -3 c48 -3 52 -5 55
-31z"/>
<path d="M1850 545 l0 -105 75 0 c62 0 75 3 75 16 0 14 -10 16 -60 12 l-60 -4
0 93 c0 76 -3 93 -15 93 -12 0 -15 -18 -15 -105z"/>
<path d="M2113 635 c-31 -22 -29 -51 5 -69 16 -9 21 -15 11 -16 -9 0 -24 -9
-34 -20 -28 -30 -7 -66 46 -80 49 -13 115 -5 123 16 4 12 1 14 -14 9 -11 -3
-38 -7 -61 -7 -84 -1 -94 64 -10 70 56 4 58 32 2 32 -49 0 -69 21 -45 45 14
13 30 16 71 13 36 -3 52 -1 50 6 -6 18 -119 19 -144 1z"/>
</g>
</svg>
