<?xml version="1.0" standalone="no"?>
<!DOCTYPE svg PUBLIC "-//W3C//DTD SVG 20010904//EN"
 "http://www.w3.org/TR/2001/REC-SVG-20010904/DTD/svg10.dtd">
<svg version="1.0" xmlns="http://www.w3.org/2000/svg"
 width="300.000000pt" height="182.000000pt" viewBox="0 0 300.000000 182.000000"
 preserveAspectRatio="xMidYMid meet">
<metadata>
Created by potrace 1.10, written by Peter Selinger 2001-2011
</metadata>
<g transform="translate(0.000000,182.000000) scale(0.100000,-0.100000)"
fill="#000000" stroke="none">
<path d="M1226 1789 c-87 -21 -220 -80 -293 -130 -150 -103 -287 -279 -343
-444 l-17 -49 -74 -12 c-137 -22 -217 -62 -317 -158 -71 -68 -122 -148 -152
-237 -20 -58 -28 -162 -12 -144 7 8 27 84 38 144 9 47 76 153 134 212 92 93
234 159 342 159 35 0 70 29 75 62 3 22 52 131 61 138 4 3 18 26 31 52 49 98
208 246 328 306 69 34 202 79 258 87 22 3 56 8 75 12 72 11 117 9 261 -12 54
-8 198 -60 254 -91 127 -70 240 -173 313 -286 48 -73 60 -82 113 -79 20 1 63
-2 95 -8 33 -6 73 -13 91 -16 39 -6 73 -19 138 -51 182 -90 309 -270 340 -483
9 -62 24 -71 25 -14 0 75 -42 199 -98 284 -125 192 -336 308 -558 309 l-81 0
-36 58 c-116 186 -332 340 -547 392 -116 27 -330 27 -444 -1z"/>
<path d="M1380 1749 c-75 -5 -126 -14 -177 -32 -40 -14 -73 -23 -73 -19 0 4
-4 2 -8 -3 -4 -6 -34 -24 -67 -40 -183 -91 -361 -303 -415 -495 l-15 -55 -63
-7 c-69 -8 -161 -32 -204 -54 -15 -8 -29 -13 -30 -12 -9 9 -150 -129 -174
-169 -10 -18 -22 -33 -26 -33 -4 0 -8 -9 -8 -19 0 -11 -5 -21 -10 -23 -6 -2
-12 -13 -15 -26 -2 -12 -7 -27 -10 -33 -18 -27 -25 -160 -14 -232 16 -98 63
-184 152 -275 59 -62 113 -96 206 -130 l66 -24 961 0 c868 1 968 2 1019 18
125 36 189 75 285 174 42 43 84 96 94 119 11 22 23 38 29 34 6 -4 7 -1 2 6 -4
7 2 31 13 54 28 59 44 162 38 238 -7 74 -9 81 -44 174 -56 151 -188 286 -342
349 -25 10 -56 23 -70 29 -14 5 -79 11 -145 12 l-120 3 -30 49 c-114 188 -278
319 -486 388 -97 33 -185 42 -319 34z m270 -44 c36 -9 112 -40 170 -68 94 -45
115 -61 205 -151 66 -66 112 -123 135 -166 l35 -65 130 -6 c140 -7 180 -16
265 -59 300 -154 406 -522 235 -816 -45 -77 -149 -174 -235 -217 -136 -68
-112 -67 -1126 -67 -607 0 -930 4 -970 11 -194 35 -359 199 -395 394 -33 177
47 374 194 479 75 54 194 96 269 96 30 0 61 6 69 13 9 6 23 39 33 72 42 138
143 289 255 382 111 91 275 163 426 187 56 8 240 -3 305 -19z"/>
<path d="M975 1142 l-50 -15 58 -15 c49 -12 68 -12 118 -2 33 7 58 15 56 17
-5 5 -116 33 -125 32 -4 -1 -29 -8 -57 -17z m80 -12 c3 -5 -1 -10 -10 -10 -9
0 -13 5 -10 10 3 6 8 10 10 10 2 0 7 -4 10 -10z"/>
<path d="M1303 1146 c-61 -16 -61 -23 0 -36 45 -11 65 -10 113 2 l59 15 -57
16 c-62 19 -57 19 -115 3z"/>
<path d="M902 1019 l3 -91 63 -23 62 -22 0 93 0 93 -41 11 c-23 6 -52 16 -66
21 l-24 9 3 -91z m91 32 c10 -10 15 -81 6 -87 -4 -2 -5 -14 -1 -26 4 -18 2
-20 -14 -14 -10 5 -27 11 -36 13 -15 4 -18 17 -18 70 l0 65 28 -7 c15 -3 31
-10 35 -14z"/>
<path d="M1123 1088 l-63 -20 0 -93 0 -92 61 21 60 22 2 92 c1 51 2 92 2 91 0
-1 -28 -10 -62 -21z m37 -78 c0 -59 -1 -61 -32 -75 -18 -7 -35 -12 -38 -10 -4
3 -5 57 -1 117 1 15 17 22 59 27 8 1 12 -17 12 -59z"/>
<path d="M1220 1016 l0 -91 60 -21 60 -21 0 93 0 92 -60 20 -60 19 0 -91z m70
45 c23 -6 25 -12 27 -74 1 -62 -7 -82 -22 -56 -4 6 -13 8 -20 5 -23 -9 -34 18
-32 77 2 58 4 60 47 48z"/>
<path d="M1433 1087 l-62 -18 1 -93 1 -92 61 22 61 22 3 46 c2 25 2 65 0 89
l-3 43 -62 -19z m40 -81 c0 -57 -2 -59 -33 -72 -18 -8 -34 -14 -35 -14 -2 0
-3 30 -2 67 2 62 4 68 27 74 39 11 43 7 43 -55z"/>
<path d="M512 881 l-53 -17 56 -16 c50 -14 62 -14 117 0 l62 15 -65 18 c-35
10 -64 18 -64 18 0 -1 -24 -9 -53 -18z"/>
<path d="M830 881 l-55 -18 40 -11 c62 -18 76 -18 134 -3 l54 14 -59 18 c-32
10 -59 18 -59 18 0 -1 -25 -9 -55 -18z m67 -17 c-3 -3 -12 -4 -19 -1 -8 3 -5
6 6 6 11 1 17 -2 13 -5z"/>
<path d="M1125 824 c-34 -36 -32 -54 5 -54 17 0 30 4 30 10 0 5 9 14 21 20 24
14 49 -2 49 -31 0 -15 -7 -19 -32 -19 -46 0 -94 -32 -101 -67 -13 -68 45 -110
109 -80 35 17 37 17 50 0 12 -17 14 -17 35 4 20 19 21 26 11 48 -7 14 -12 57
-12 95 0 83 -16 100 -93 100 -39 0 -52 -5 -72 -26z m135 -91 c0 -21 -3 -24 -9
-14 -5 8 -7 20 -4 28 8 21 13 15 13 -14z m-30 -36 c0 -32 -23 -60 -46 -55 -28
5 -30 43 -2 62 32 22 48 20 48 -7z m49 -59 c1 -5 -3 -8 -8 -8 -12 0 -22 30
-14 43 6 10 20 -13 22 -35z m-139 -3 c0 -5 -5 -3 -10 5 -5 8 -10 20 -10 25 0
6 5 3 10 -5 5 -8 10 -19 10 -25z"/>
<path d="M1350 846 c-3 -2 -4 -61 -2 -130 l3 -126 29 0 29 0 3 98 c3 96 3 97
28 97 25 0 25 -1 28 -97 l3 -98 29 0 30 0 0 84 c0 101 5 116 36 116 23 0 23
-3 26 -97 l3 -98 30 0 30 0 2 102 c2 89 0 104 -18 127 -25 32 -68 34 -94 6
l-18 -20 -14 20 c-19 27 -67 26 -93 -2 -21 -22 -22 -22 -18 -3 2 15 -3 21 -22
23 -14 2 -28 1 -30 -2z m160 -66 c0 -28 -7 -25 -25 11 -16 30 -16 30 4 19 12
-6 21 -20 21 -30z m110 12 c0 -8 -1 -13 -3 -11 -1 2 -9 12 -16 22 -12 15 -12
17 3 11 9 -3 16 -13 16 -22z m-230 -8 c0 -8 -4 -14 -8 -14 -4 0 -8 9 -8 19 0
11 4 17 8 15 4 -3 8 -12 8 -20z"/>
<path d="M1726 824 c-35 -36 -34 -54 4 -54 17 0 30 4 30 10 0 5 9 14 21 20 24
14 49 -2 49 -31 0 -14 -7 -19 -30 -19 -37 0 -85 -23 -94 -45 -14 -37 -6 -84
16 -99 28 -20 51 -20 89 0 29 14 32 14 44 -3 13 -17 15 -17 36 4 20 19 21 26
11 48 -7 14 -12 57 -12 95 0 60 -3 71 -22 84 -13 9 -43 16 -69 16 -37 0 -52
-5 -73 -26z m129 -14 c3 -5 1 -10 -4 -10 -6 0 -11 5 -11 10 0 6 2 10 4 10 3 0
8 -4 11 -10z m5 -76 c0 -8 -5 -12 -10 -9 -6 4 -8 11 -5 16 9 14 15 11 15 -7z
m-30 -37 c0 -32 -23 -60 -46 -55 -28 5 -30 43 -2 62 32 22 48 20 48 -7z m42
-41 c4 -17 1 -23 -9 -19 -14 5 -17 25 -6 36 9 10 10 9 15 -17z m-128 -22 c3
-8 2 -12 -4 -9 -6 3 -10 10 -10 16 0 14 7 11 14 -7z"/>
<path d="M1950 825 c0 -23 4 -25 45 -25 l46 0 -51 -72 c-33 -46 -50 -81 -50
-101 0 -24 3 -28 18 -21 22 11 122 11 145 0 14 -7 17 -3 17 22 0 26 -5 32 -35
42 -19 6 -39 9 -45 5 -19 -12 -10 7 35 69 25 35 45 73 45 85 0 20 -5 21 -85
21 -84 0 -85 0 -85 -25z m126 -16 c3 -6 -2 -18 -11 -27 -10 -10 -15 -11 -11
-4 4 7 2 19 -4 27 -10 12 -9 15 3 15 9 0 19 -5 23 -11z m-57 -150 c1 -4 -10
-9 -24 -11 -30 -6 -31 0 -7 30 15 19 18 19 24 4 4 -9 7 -20 7 -23z"/>
<path d="M2185 826 c-76 -76 -35 -236 60 -236 68 0 111 64 103 152 -4 42 -11
57 -37 80 -41 36 -92 38 -126 4z m93 -85 c4 -73 -4 -101 -28 -101 -25 0 -40
29 -40 80 0 54 15 82 43 78 19 -3 22 -10 25 -57z"/>
<path d="M2390 846 c-3 -2 -4 -61 -2 -131 l3 -126 27 3 c27 3 27 4 32 96 4 67
9 95 20 102 28 17 39 -9 42 -103 l3 -92 29 0 29 0 -2 110 c-2 84 -6 114 -18
127 -25 27 -68 23 -92 -9 l-22 -28 3 25 c2 20 -2 26 -22 28 -14 2 -28 1 -30
-2z m150 -54 c0 -8 -1 -13 -3 -11 -1 2 -9 12 -16 22 -12 15 -12 17 3 11 9 -3
16 -13 16 -22z m-120 -62 c-6 -57 -7 -59 -8 -20 -2 41 7 95 13 88 2 -2 -1 -32
-5 -68z"/>
<path d="M430 753 l0 -89 53 -18 c28 -9 58 -20 65 -23 9 -3 12 18 12 89 l0 94
-47 13 c-27 7 -56 15 -65 18 -16 5 -18 -4 -18 -84z m100 -30 c0 -67 -5 -73
-50 -50 -22 11 -24 17 -21 67 1 30 5 58 7 61 2 4 18 2 34 -4 29 -11 30 -14 30
-74z"/>
<path d="M643 822 l-53 -15 0 -93 0 -93 59 20 60 20 3 90 c2 55 -1 89 -7 88
-5 -1 -34 -8 -62 -17z m47 -81 c0 -65 -1 -67 -45 -72 l-30 -4 -2 58 c-1 51 1
59 20 67 50 20 57 14 57 -49z"/>
<path d="M748 751 l3 -90 60 -20 59 -20 0 93 0 93 -60 16 c-33 10 -61 17 -62
17 -2 0 -2 -40 0 -89z m83 39 c15 -9 19 -22 19 -66 0 -63 -15 -76 -55 -50 -22
14 -25 24 -25 71 0 49 2 55 21 55 11 0 29 -5 40 -10z"/>
<path d="M955 821 l-50 -18 -3 -92 c-2 -73 0 -92 10 -88 7 3 37 14 66 23 l52
18 0 88 c0 98 3 96 -75 69z m38 -141 c-4 -4 -20 -10 -35 -14 l-28 -6 0 63 c0
64 0 64 33 73 l32 10 3 -60 c2 -32 -1 -62 -5 -66z"/>
<path d="M675 618 c-16 -5 -37 -12 -45 -15 -8 -3 11 -12 43 -19 48 -11 66 -11
115 0 31 7 50 16 42 19 -84 30 -106 32 -155 15z"/>
<path d="M592 490 l3 -93 50 -18 c28 -10 55 -18 60 -18 6 -1 10 35 10 89 l0
91 -45 13 c-25 8 -53 17 -63 21 -16 7 -18 0 -15 -85z m86 41 c8 -1 12 -21 12
-64 0 -35 -2 -66 -5 -69 -3 -3 -21 2 -39 10 -29 13 -33 19 -30 46 1 17 3 43 3
58 1 23 5 27 24 24 12 -3 28 -5 35 -5z"/>
<path d="M805 560 l-50 -17 -5 -91 c-3 -58 -1 -92 5 -91 6 0 33 8 60 18 l50
18 3 91 c1 51 -1 91 -5 91 -4 -1 -30 -9 -58 -19z m41 -77 c0 -28 -2 -55 -5
-60 -9 -13 -58 -32 -65 -26 -3 4 -6 35 -6 69 0 57 2 63 23 67 46 9 51 4 53
-50z"/>
<path d="M2127 573 c-4 -3 -7 -12 -7 -20 0 -15 26 -18 34 -4 7 11 -18 33 -27
24z"/>
<path d="M1430 465 c0 -63 4 -105 10 -105 6 0 10 5 10 12 0 9 3 9 12 0 36 -36
91 5 91 69 0 56 -31 88 -71 73 -27 -10 -28 -10 -24 23 3 25 0 33 -12 33 -14 0
-16 -15 -16 -105z m78 23 c17 -17 15 -83 -3 -98 -12 -10 -18 -10 -30 0 -27 22
-15 110 15 110 3 0 11 -5 18 -12z"/>
<path d="M1083 508 c3 -7 13 -44 23 -81 23 -82 44 -87 59 -12 12 55 19 52 30
-13 11 -67 35 -52 58 36 11 40 17 75 14 78 -13 13 -26 -9 -33 -51 -8 -55 -20
-58 -29 -7 -13 77 -39 81 -51 7 -3 -25 -10 -45 -13 -45 -4 0 -12 21 -17 47 -6
34 -14 49 -28 51 -12 3 -17 -1 -13 -10z"/>
<path d="M1300 498 c-24 -26 -27 -84 -4 -116 19 -28 63 -29 95 -3 27 21 18 42
-9 23 -31 -22 -42 -24 -57 -12 -8 7 -15 20 -15 29 0 13 9 15 50 13 44 -4 50
-2 50 16 0 30 -38 72 -65 72 -13 0 -33 -10 -45 -22z m80 -31 c0 -7 -14 -12
-35 -12 -38 0 -47 17 -18 34 20 11 53 -3 53 -22z"/>
<path d="M1616 504 c-34 -33 -16 -66 42 -79 23 -5 32 -12 30 -23 -5 -24 -36
-27 -59 -6 -21 19 -35 14 -26 -10 15 -39 109 -29 115 12 5 31 -12 49 -53 56
-20 4 -35 13 -35 20 0 21 26 26 47 11 23 -18 33 -18 33 0 0 32 -67 46 -94 19z"/>
<path d="M1760 500 c-27 -27 -28 -100 -2 -123 31 -28 102 -15 102 18 0 20 -9
19 -32 -2 -22 -20 -51 -8 -56 23 -2 16 4 19 45 19 58 0 68 21 29 60 -30 30
-59 32 -86 5z m64 -16 c24 -23 19 -31 -19 -30 -38 1 -46 18 -17 35 9 6 18 11
19 11 1 0 9 -7 17 -16z"/>
<path d="M1927 503 c-11 -11 -17 -13 -17 -5 0 7 -4 12 -10 12 -6 0 -10 -32
-10 -75 0 -60 3 -75 15 -75 12 0 15 13 15 55 0 44 4 57 20 67 20 13 28 38 12
38 -4 0 -15 -8 -25 -17z"/>
<path d="M1980 512 c0 -4 11 -39 23 -78 32 -93 49 -95 77 -7 13 37 25 74 28
81 2 6 -3 12 -11 12 -11 0 -22 -20 -33 -62 l-18 -63 -18 63 c-12 39 -24 62
-33 62 -8 0 -15 -4 -15 -8z"/>
<path d="M2120 440 c0 -64 3 -80 15 -80 12 0 15 16 15 80 0 64 -3 80 -15 80
-12 0 -15 -16 -15 -80z"/>
<path d="M2191 494 c-41 -52 -17 -134 39 -134 26 0 60 29 60 52 0 16 -22 8
-40 -14 -15 -19 -20 -20 -34 -9 -16 14 -21 56 -10 85 8 20 43 21 50 1 7 -17
34 -21 34 -5 0 17 -39 50 -59 50 -11 0 -29 -12 -40 -26z"/>
<path d="M2329 501 c-30 -24 -33 -89 -5 -120 23 -25 68 -27 90 -5 20 20 20 34
1 34 -8 0 -15 -4 -15 -9 0 -18 -33 -21 -52 -4 -28 25 -17 38 30 35 55 -4 63 2
50 38 -17 50 -59 63 -99 31z m66 -21 c10 -11 16 -20 14 -21 -30 -4 -79 -5 -79
-1 0 8 32 42 40 42 4 0 15 -9 25 -20z"/>
<path d="M2466 504 c-34 -33 -16 -66 42 -79 23 -5 32 -12 30 -23 -5 -24 -36
-27 -59 -6 -21 19 -35 14 -26 -10 15 -39 109 -29 115 12 5 31 -12 49 -53 56
-20 4 -35 13 -35 20 0 21 26 26 47 11 23 -18 33 -18 33 0 0 32 -67 46 -94 19z"/>
<path d="M2981 650 c-1 -3 -4 -16 -7 -30 -2 -14 -7 -36 -11 -50 -9 -34 -8 -30
-17 -75 -28 -141 -161 -308 -307 -384 -46 -24 -115 -53 -154 -65 -69 -21 -81
-21 -1020 -21 -881 0 -955 1 -1015 18 -66 18 -152 56 -158 70 -2 4 -10 7 -17
7 -27 0 -150 135 -182 201 -18 36 -33 72 -33 80 0 8 -4 19 -9 24 -6 6 -11 29
-12 51 -2 23 -9 50 -16 60 -12 16 -13 13 -13 -22 0 -159 146 -369 311 -447 41
-19 99 -40 129 -47 40 -8 324 -10 1045 -8 l990 3 60 23 c148 56 283 167 358
293 51 87 89 211 84 275 -2 27 -5 47 -6 44z"/>
</g>
</svg>
