<?xml version="1.0" standalone="no"?>
<!DOCTYPE svg PUBLIC "-//W3C//DTD SVG 20010904//EN"
 "http://www.w3.org/TR/2001/REC-SVG-20010904/DTD/svg10.dtd">
<svg version="1.0" xmlns="http://www.w3.org/2000/svg"
 width="300.000000pt" height="150.000000pt" viewBox="0 0 300.000000 150.000000"
 preserveAspectRatio="xMidYMid meet">
<metadata>
Created by potrace 1.10, written by Peter Selinger 2001-2011
</metadata>
<g transform="translate(0.000000,150.000000) scale(0.100000,-0.100000)"
fill="#000000" stroke="none">
<path d="M647 1112 c-14 -15 -86 -76 -160 -137 l-133 -110 -126 -210 c-69
-115 -124 -211 -123 -212 0 -1 48 3 105 10 l105 12 65 120 c37 66 119 216 183
334 65 117 116 215 114 217 -2 2 -15 -9 -30 -24z m-81 -143 c-14 -24 -38 -69
-53 -99 -15 -30 -30 -57 -33 -60 -4 -3 -20 -32 -37 -65 -17 -33 -41 -78 -53
-100 -13 -22 -33 -58 -44 -80 -12 -22 -26 -46 -33 -52 -6 -7 -13 -17 -15 -22
-1 -6 -39 -13 -83 -16 -52 -4 -75 -3 -66 3 7 5 25 34 40 63 35 72 83 153 93
157 4 2 8 9 8 17 0 7 7 18 15 25 8 7 12 16 9 21 -3 5 -1 9 4 9 5 0 17 16 26
35 10 20 21 33 26 30 6 -4 7 2 3 11 -4 11 -2 15 4 11 6 -4 13 0 17 8 3 8 9 15
14 15 5 0 38 27 73 60 35 33 69 58 76 56 6 -3 14 2 17 11 4 9 9 13 12 11 3 -3
-6 -25 -20 -49z"/>
<path d="M1581 1037 c-9 -11 -8 -17 4 -27 19 -16 47 -5 43 17 -4 23 -31 28
-47 10z"/>
<path d="M2687 1032 c-10 -10 -17 -33 -17 -50 0 -24 -4 -30 -15 -26 -11 4 -15
0 -15 -16 0 -16 4 -20 15 -16 13 4 15 -8 15 -79 0 -82 1 -85 23 -85 21 0 22 3
19 80 l-4 80 26 0 c19 0 26 5 26 20 0 15 -7 20 -25 20 -17 0 -25 5 -25 18 0
23 19 42 42 42 10 0 18 7 18 15 0 22 -63 20 -83 -3z m13 -94 c0 -16 -3 -19
-11 -11 -6 6 -8 16 -5 22 11 17 16 13 16 -11z"/>
<path d="M1224 1031 c-2 -2 -4 -64 -4 -138 l0 -133 26 0 25 0 -3 108 c-2 59
-7 115 -12 125 -5 11 -4 17 3 17 6 0 10 -3 9 -7 -1 -9 2 -20 51 -143 23 -57
44 -96 53 -98 12 -2 26 24 56 100 22 57 42 110 46 118 3 8 4 -37 3 -100 -2
-112 -1 -115 21 -118 22 -3 22 -3 22 137 l0 141 -29 0 c-27 0 -31 -6 -70 -99
-22 -55 -41 -106 -41 -113 -1 -7 -21 37 -46 97 -43 107 -45 110 -75 110 -17 0
-33 -2 -35 -4z m276 -36 c0 -8 -2 -15 -4 -15 -2 0 -6 7 -10 15 -3 8 -1 15 4
15 6 0 10 -7 10 -15z"/>
<path d="M640 880 c-39 -79 -69 -146 -68 -151 2 -4 60 -73 129 -152 l126 -144
-66 -6 c-36 -4 -104 -11 -151 -17 -47 -5 -119 -13 -160 -16 -157 -13 -86 -19
270 -22 l369 -3 -185 323 c-102 177 -187 324 -189 326 -2 3 -36 -60 -75 -138z
m124 18 c14 -29 36 -69 48 -88 51 -84 80 -137 91 -162 6 -16 15 -28 19 -28 4
0 8 -7 8 -15 0 -8 9 -29 19 -47 11 -17 18 -35 15 -40 -3 -5 0 -7 8 -6 7 2 12
-5 12 -14 -1 -10 2 -16 6 -13 8 5 54 -74 48 -80 -6 -6 -36 -7 -138 -5 -58 1
-98 4 -88 7 36 9 24 61 -25 108 -56 54 -97 106 -92 115 4 6 3 9 -2 8 -5 -2
-21 9 -36 25 -16 15 -24 27 -20 27 4 0 0 5 -10 11 -9 6 -15 15 -11 20 3 5 2 8
-3 7 -13 -5 -14 15 -3 47 9 25 13 27 21 15 8 -12 9 -9 5 11 -4 17 -1 31 8 38
7 6 21 32 31 58 33 86 45 86 89 1z"/>
<path d="M2823 1009 c-15 -6 -20 -14 -16 -28 4 -17 1 -21 -17 -21 -15 0 -20
-5 -18 -17 2 -11 11 -17 21 -15 15 2 17 -7 17 -71 0 -82 9 -97 57 -97 25 0 33
4 33 18 0 13 -7 18 -22 18 -21 -1 -23 4 -26 65 -3 66 -3 66 23 62 21 -5 25 -2
25 17 0 18 -4 21 -24 18 -22 -4 -25 -1 -28 27 -3 29 -6 31 -25 24z m17 -64 c0
-8 -4 -15 -10 -15 -5 0 -10 7 -10 15 0 8 5 15 10 15 6 0 10 -7 10 -15z"/>
<path d="M1580 860 c0 -100 0 -100 25 -100 25 0 25 0 25 100 0 100 0 100 -25
100 -25 0 -25 0 -25 -100z"/>
<path d="M1710 933 c-37 -33 -46 -82 -24 -125 17 -33 43 -48 83 -48 43 0 61 9
61 31 0 17 -3 18 -21 9 -71 -38 -122 65 -57 113 23 17 31 19 53 9 25 -11 26
-11 23 10 -2 19 -10 24 -45 26 -34 3 -47 -2 -73 -25z"/>
<path d="M1870 860 c0 -100 0 -100 25 -100 24 0 25 2 25 68 0 73 10 92 47 92
16 0 23 6 23 20 0 28 -43 26 -64 -2 l-17 -23 5 23 c3 18 0 22 -20 22 -24 0
-24 -1 -24 -100z"/>
<path d="M2041 934 c-26 -21 -31 -33 -31 -69 0 -57 7 -73 41 -90 75 -39 147
-3 156 77 5 42 3 50 -25 78 -40 40 -96 42 -141 4z m103 -20 c19 -18 21 -85 4
-102 -18 -18 -69 -15 -84 6 -45 58 29 147 80 96z"/>
<path d="M2270 947 c-28 -14 -38 -51 -19 -73 7 -9 28 -23 47 -32 38 -18 42
-31 18 -47 -10 -6 -26 -6 -46 2 -29 11 -31 10 -28 -10 2 -18 11 -23 46 -25 57
-4 94 19 90 56 -2 21 -14 32 -50 51 -27 13 -48 29 -48 36 0 20 33 27 64 15 25
-9 27 -8 24 12 -2 18 -10 24 -38 26 -19 1 -46 -4 -60 -11z"/>
<path d="M2454 945 c-30 -21 -47 -68 -40 -109 13 -66 89 -96 156 -61 54 28 59
134 7 170 -27 19 -96 19 -123 0z m100 -37 c34 -48 13 -108 -37 -108 -42 0 -57
15 -57 59 0 64 62 96 94 49z"/>
<path d="M1298 518 c-26 -68 -49 -130 -53 -139 -5 -13 0 -15 24 -11 24 3 30
10 36 38 l6 35 56 -3 c54 -3 57 -4 68 -37 9 -27 17 -35 38 -35 15 -1 26 1 25
4 -2 4 -25 66 -53 138 -46 121 -52 132 -75 132 -24 0 -30 -10 -72 -122z m89
30 c7 -24 15 -51 18 -60 6 -15 1 -18 -35 -18 -36 0 -41 3 -35 18 3 9 11 36 18
60 6 23 14 42 17 42 3 0 11 -19 17 -42z m-67 -82 c0 -3 -4 -8 -10 -11 -5 -3
-10 -1 -10 4 0 6 5 11 10 11 6 0 10 -2 10 -4z m126 -14 c1 -7 0 -8 -3 -2 -2 5
-9 8 -14 4 -5 -3 -9 0 -9 6 0 15 23 7 26 -8z"/>
<path d="M1520 539 c0 -19 4 -20 53 -14 50 7 51 7 37 -11 -36 -43 -100 -131
-100 -137 0 -4 38 -7 85 -7 69 0 85 3 85 15 0 12 -13 15 -56 15 l-55 0 55 71
c31 39 56 75 56 80 0 5 -36 9 -80 9 -75 0 -80 -1 -80 -21z"/>
<path d="M1712 479 c3 -70 6 -83 27 -100 28 -23 64 -25 85 -4 16 16 31 20 22
6 -3 -5 5 -11 19 -13 l25 -5 0 98 0 99 -26 0 c-24 0 -25 -2 -23 -57 3 -85 -6
-105 -44 -101 l-32 3 -3 78 c-3 75 -3 77 -28 77 l-26 0 4 -81z m155 -71 c-3
-8 -6 -5 -6 6 -1 11 2 17 5 13 3 -3 4 -12 1 -19z"/>
<path d="M1942 463 c3 -92 4 -96 26 -98 20 -2 22 2 22 57 0 72 12 98 45 98 18
0 25 5 25 20 0 26 -45 28 -59 3 -10 -17 -10 -17 -11 0 0 11 -8 17 -25 17 l-26
0 3 -97z m35 35 c-3 -8 -6 -5 -6 6 -1 11 2 17 5 13 3 -3 4 -12 1 -19z"/>
<path d="M2109 534 c-19 -20 -24 -36 -24 -76 0 -42 4 -53 28 -74 30 -26 83
-32 118 -14 25 14 26 45 2 35 -45 -19 -62 -17 -90 11 l-28 29 73 3 c72 3 72 3
72 31 0 16 -9 40 -21 55 -29 37 -95 37 -130 0z m101 -25 c15 -28 10 -31 -44
-27 -46 3 -46 3 -31 26 20 28 61 29 75 1z"/>
</g>
</svg>
