<?xml version="1.0" standalone="no"?>
<!DOCTYPE svg PUBLIC "-//W3C//DTD SVG 20010904//EN"
 "http://www.w3.org/TR/2001/REC-SVG-20010904/DTD/svg10.dtd">
<svg version="1.0" xmlns="http://www.w3.org/2000/svg"
 width="300.000000pt" height="300.000000pt" viewBox="0 0 300.000000 300.000000"
 preserveAspectRatio="xMidYMid meet">
<metadata>
Created by potrace 1.10, written by Peter Selinger 2001-2011
</metadata>
<g transform="translate(0.000000,300.000000) scale(0.100000,-0.100000)"
fill="#000000" stroke="none">
<path d="M1370 2325 l0 -145 -316 0 -315 0 3 -145 3 -145 -157 0 -158 0 0
-145 0 -145 -70 0 -69 0 -7 -36 c-10 -55 4 -211 26 -300 11 -44 41 -122 67
-174 39 -79 61 -109 132 -180 177 -176 389 -238 742 -218 451 25 827 227 1052
564 37 55 82 134 101 176 l35 75 78 5 c132 8 222 64 288 181 l34 61 -42 28
c-55 36 -124 51 -222 46 l-81 -3 -17 55 c-23 71 -73 139 -144 195 -54 42 -59
44 -71 28 -102 -135 -119 -316 -45 -455 5 -8 -79 -35 -134 -44 l-43 -7 0 147
0 146 -157 0 -158 0 3 290 3 290 -181 0 -180 0 0 -145z m40 108 c0 -5 -5 -15
-10 -23 -7 -12 -9 -10 -7 8 1 19 17 33 17 15z m294 -9 c8 -22 8 -24 -6 -24 -6
0 -8 3 -5 7 4 3 2 12 -4 20 -7 8 -8 13 -1 13 5 0 13 -7 16 -16z m-24 -126 l0
-123 -121 3 c-77 2 -126 -1 -132 -7 -8 -8 23 -11 103 -11 62 0 110 -3 107 -6
-3 -4 -52 -6 -108 -5 -63 1 -107 -3 -115 -10 -10 -9 -14 -42 -14 -130 0 -110
1 -119 22 -133 12 -9 17 -16 10 -16 -6 0 -12 -5 -12 -11 0 -7 44 -9 130 -7
l130 3 0 -122 0 -123 -135 0 -135 0 -2 128 -2 127 -3 -113 c-4 -142 -23 -141
-23 2 0 65 -4 106 -12 114 -9 9 -8 16 4 29 11 14 15 41 13 118 -1 55 -5 110
-9 123 -8 24 9 56 25 46 5 -3 9 50 9 120 l0 126 135 0 135 0 0 -122z m24 -160
c-2 -3 -15 -1 -29 5 -23 11 -23 12 -5 15 11 2 20 9 21 15 0 7 4 3 8 -8 5 -11
7 -23 5 -27z m-920 -3 c-4 -8 -8 -15 -10 -15 -2 0 -4 7 -4 15 0 8 4 15 10 15
5 0 7 -7 4 -15z m313 1 c-3 -8 -7 -56 -8 -105 -1 -50 -6 -91 -10 -91 -5 0 -9
42 -9 93 0 59 -4 97 -12 105 -9 9 -6 12 16 12 20 0 27 -4 23 -14z m-37 -126
l0 -120 -135 0 -135 0 0 120 0 120 135 0 135 0 0 -120z m310 0 l0 -120 -135 0
-135 0 0 120 0 120 135 0 135 0 0 -120z m310 0 l0 -120 -135 0 -135 0 0 120 0
120 135 0 135 0 0 -120z m17 8 c-2 -13 -4 -3 -4 22 0 25 2 35 4 23 2 -13 2
-33 0 -45z m593 59 c0 -2 -10 -12 -21 -23 -22 -19 -22 -19 -8 4 12 19 29 30
29 19z m57 -79 c55 -56 88 -118 99 -186 l7 -42 41 8 c62 11 176 7 221 -8 65
-21 67 -26 34 -80 -57 -93 -147 -136 -294 -140 l-50 -1 -35 -77 c-175 -390
-509 -641 -950 -716 -208 -35 -435 -29 -585 15 -89 27 -208 89 -261 137 l-41
37 98 1 c102 2 203 25 282 66 22 11 40 18 41 16 98 -139 219 -237 334 -272 37
-12 25 12 -14 26 -34 12 -35 13 -13 19 19 5 15 7 -17 8 -48 1 -133 60 -204
141 -25 29 -60 68 -78 87 l-33 35 -52 -25 c-84 -39 -195 -60 -299 -55 -105 5
-105 5 -168 133 -50 102 -80 230 -80 341 0 73 -2 85 -15 80 -13 -4 -14 -2 -5
14 7 13 20 20 38 19 l27 -1 -25 -8 c-14 -4 379 -8 873 -9 879 -1 899 -1 958
19 34 12 72 28 85 37 22 14 23 17 10 32 -9 9 -25 38 -37 65 -37 84 -23 235 28
313 9 13 18 23 22 23 4 0 30 -24 58 -52z m-650 -40 c-3 -8 -6 -5 -6 6 -1 11 2
17 5 13 3 -3 4 -12 1 -19z m-605 -50 c2 -15 11 -24 26 -26 29 -4 28 -18 -3
-26 -27 -7 -25 1 -28 -143 -2 -103 -16 -76 -20 37 -3 92 -3 91 -5 -27 l-2
-123 -135 0 -135 0 0 123 0 122 112 -3 c119 -4 180 4 143 18 -19 7 -19 7 3 19
12 6 22 21 22 31 0 27 18 25 22 -2z m-315 -4 c-3 -4 1 -13 9 -21 11 -12 29
-14 67 -10 29 2 63 1 77 -3 16 -4 -3 -7 -55 -8 -60 -2 -83 -6 -92 -18 -6 -9
-16 -13 -22 -9 -8 4 -11 -32 -11 -114 l0 -121 -135 0 -135 0 0 126 c0 81 -4
123 -10 119 -5 -3 -10 2 -10 11 0 16 1 16 19 0 15 -14 37 -16 137 -14 66 2
118 6 117 10 -2 7 38 57 46 58 2 0 2 -3 -2 -6z m955 -52 c-4 -11 22 -13 127
-10 l131 3 0 -122 0 -123 -132 0 -133 0 3 111 c2 70 -1 116 -7 122 -8 8 -11
-25 -11 -111 0 -145 -6 -140 137 -136 51 1 95 -1 98 -6 3 -5 -127 -9 -290 -9
-162 -1 -295 2 -295 6 0 5 7 17 15 28 15 19 15 19 30 -2 13 -19 21 -20 142
-16 70 3 133 9 139 14 12 10 12 228 0 247 -4 7 -34 12 -72 12 -36 0 -63 4 -60
9 3 4 28 6 55 3 34 -3 56 0 71 11 20 14 24 14 39 -1 10 -10 16 -23 13 -30z
m-382 16 c0 -5 -46 -8 -102 -7 -57 0 -95 4 -85 8 25 9 187 8 187 -1z m-737 -5
c-7 -2 -19 -2 -25 0 -7 3 -2 5 12 5 14 0 19 -2 13 -5z m1340 0 c-7 -2 -19 -2
-25 0 -7 3 -2 5 12 5 14 0 19 -2 13 -5z m65 -47 c-1 -43 -2 -45 -5 -14 -3 23
-12 43 -24 52 -19 13 -19 14 6 14 24 0 25 -3 23 -52z m-648 -91 l0 -125 -135
0 -135 0 0 120 0 119 128 4 c70 1 130 4 135 5 4 1 7 -54 7 -123z m1130 72 c0
-16 -35 -1 -38 16 -3 16 -1 17 17 5 12 -7 21 -17 21 -21z m-1726 -42 c0 -35
-3 -68 -7 -71 -4 -4 -7 25 -7 64 0 40 3 72 8 72 4 0 7 -29 6 -65z m1816 51 c0
-2 -18 -6 -40 -8 -22 -2 -40 0 -40 4 0 5 18 8 40 8 22 0 40 -2 40 -4z m67 -2
c-3 -3 -12 -4 -19 -1 -8 3 -5 6 6 6 11 1 17 -2 13 -5z m83 -19 c14 -8 21 -14
15 -14 -5 0 -21 6 -35 14 -14 8 -20 14 -15 14 6 0 21 -6 35 -14z m60 -45 c0
-11 -5 -22 -11 -26 -8 -4 -9 0 -4 15 4 12 2 21 -4 21 -6 0 -11 4 -11 10 0 5 7
7 15 4 8 -4 15 -14 15 -24z m-783 -72 c-2 -13 -4 -3 -4 22 0 25 2 35 4 23 2
-13 2 -33 0 -45z m225 -45 c-25 -20 -37 -15 -18 6 14 15 15 24 7 40 -6 11 -11
23 -11 28 1 4 9 -8 20 -27 17 -32 17 -36 2 -47z m518 38 c-5 -11 -15 -23 -21
-27 -6 -3 -3 5 6 20 20 30 30 35 15 7z m-1987 -11 c3 -11 1 -23 -4 -26 -5 -3
-9 6 -9 20 0 31 6 34 13 6z m342 -64 c14 -10 11 -12 -25 -14 -31 -2 -40 0 -36
10 3 7 9 22 13 32 6 18 7 18 19 2 7 -10 20 -23 29 -30z m1595 19 c-7 -8 -17
-15 -23 -15 -6 0 -2 7 9 15 25 19 30 19 14 0z m-2238 -7 c3 -9 43 -13 133 -15
108 -2 132 0 147 14 17 15 19 15 37 -1 14 -13 35 -16 90 -15 39 1 74 -1 78 -5
3 -3 -119 -6 -273 -5 -208 0 -273 3 -256 11 12 6 22 15 22 20 0 13 18 10 22
-4z m1569 -19 c9 -6 1 -9 -25 -9 -39 0 -39 0 -21 20 13 14 21 17 26 9 3 -6 13
-15 20 -20z m136 15 c-3 -3 -12 -4 -19 -1 -8 3 -5 6 6 6 11 1 17 -2 13 -5z
m-1173 -12 c2 -4 -4 -8 -14 -8 -10 0 -16 4 -14 8 3 4 9 8 14 8 5 0 11 -4 14
-8z m240 -1 c3 -4 -4 -7 -14 -6 -27 2 -33 10 -10 12 11 1 22 -2 24 -6z m1190
-55 c-3 -8 -12 -17 -20 -20 -12 -4 -12 -2 -4 14 12 23 32 27 24 6z m89 7 c-7
-2 -21 -2 -30 0 -10 3 -4 5 12 5 17 0 24 -2 18 -5z m-2206 -175 c-3 -7 -5 -2
-5 12 0 14 2 19 5 13 2 -7 2 -19 0 -25z m2012 -22 c-29 -49 -34 -46 -9 5 12
23 24 39 26 36 3 -2 -5 -21 -17 -41z m-69 -103 c-5 -10 -22 -31 -36 -48 l-27
-30 17 28 c18 29 48 67 54 67 1 0 -2 -8 -8 -17z m-1906 -9 c3 -8 2 -12 -4 -9
-6 3 -10 10 -10 16 0 14 7 11 14 -7z m1800 -118 c-22 -24 -43 -45 -49 -45 -5
-1 11 19 35 44 56 58 64 58 14 1z m-1734 -40 c0 -12 -5 -7 -19 24 -11 24 -11
24 3 6 9 -11 16 -24 16 -30z m24 -32 c3 -8 2 -12 -4 -9 -6 3 -10 10 -10 16 0
14 7 11 14 -7z m476 6 c0 -5 -5 -10 -11 -10 -5 0 -7 5 -4 10 3 6 8 10 11 10 2
0 4 -4 4 -10z m-45 -20 c-3 -5 -14 -10 -23 -9 -14 0 -13 2 3 9 27 11 27 11 20
0z m-391 -25 c11 -8 36 -16 55 -16 22 -1 28 -3 16 -6 -11 -3 -25 -13 -32 -22
-11 -15 -13 -14 -30 4 -48 54 -53 73 -9 40z m163 -21 c-3 -3 -12 -4 -19 -1 -8
3 -5 6 6 6 11 1 17 -2 13 -5z m1253 -69 c-7 -9 -15 -13 -19 -10 -3 3 1 10 9
15 21 14 24 12 10 -5z m-50 -29 c0 -3 -15 -12 -32 -20 l-33 -16 24 20 c21 19
41 26 41 16z m-84 -41 c-11 -8 -25 -15 -30 -15 -6 1 0 7 14 15 32 19 40 18 16
0z m-96 -39 c0 -2 -9 -6 -20 -9 -11 -3 -20 -1 -20 4 0 5 9 9 20 9 11 0 20 -2
20 -4z m-60 -20 c0 -2 -11 -6 -25 -8 -13 -3 -22 -1 -19 3 5 9 44 13 44 5z
m-115 -25 c-15 -13 -65 -23 -65 -12 0 5 15 12 33 14 17 2 34 5 37 5 2 1 0 -2
-5 -7z m-138 -27 c-3 -3 -12 -4 -19 -1 -8 3 -5 6 6 6 11 1 17 -2 13 -5z"/>
<path d="M1462 2300 c4 -93 22 -95 26 -2 2 61 0 72 -13 72 -14 0 -16 -11 -13
-70z"/>
<path d="M1537 2298 c2 -101 23 -104 23 -4 0 54 -4 76 -12 76 -9 0 -13 -20
-11 -72z"/>
<path d="M1610 2295 c0 -43 4 -75 10 -75 6 0 10 32 10 75 0 43 -4 75 -10 75
-6 0 -10 -32 -10 -75z"/>
<path d="M1467 1793 c-2 -5 -5 -38 -5 -75 -1 -53 2 -68 13 -68 12 0 15 16 15
75 0 65 -9 92 -23 68z"/>
<path d="M1538 1725 c-2 -55 0 -75 10 -75 8 0 12 22 12 75 0 98 -17 97 -22 0z"/>
<path d="M1610 1725 c0 -43 4 -75 10 -75 6 0 10 32 10 75 0 43 -4 75 -10 75
-6 0 -10 -32 -10 -75z"/>
<path d="M840 2010 c0 -49 4 -70 13 -70 8 0 12 21 12 70 0 49 -4 70 -12 70 -9
0 -13 -21 -13 -70z"/>
<path d="M910 2010 c0 -56 3 -70 15 -70 12 0 15 14 15 70 0 56 -3 70 -15 70
-12 0 -15 -14 -15 -70z"/>
<path d="M985 2010 c0 -50 4 -70 12 -70 9 0 13 20 13 70 0 50 -4 70 -13 70 -9
0 -12 -20 -12 -70z"/>
<path d="M1150 2010 c0 -56 3 -70 15 -70 12 0 15 14 15 70 0 56 -3 70 -15 70
-12 0 -15 -14 -15 -70z"/>
<path d="M1221 2010 c-1 -57 2 -70 14 -70 12 0 15 14 15 70 0 53 -3 70 -14 70
-10 0 -14 -18 -15 -70z"/>
<path d="M1295 2010 c0 -49 4 -70 13 -70 8 0 12 21 12 70 0 49 -4 70 -12 70
-9 0 -13 -21 -13 -70z"/>
<path d="M1461 2010 c-1 -57 2 -70 14 -70 12 0 15 14 15 70 0 53 -3 70 -14 70
-10 0 -14 -18 -15 -70z"/>
<path d="M1535 2010 c0 -49 4 -70 13 -70 8 0 12 21 12 70 0 49 -4 70 -12 70
-9 0 -13 -21 -13 -70z"/>
<path d="M1610 2010 c0 -40 4 -70 10 -70 6 0 10 30 10 70 0 40 -4 70 -10 70
-6 0 -10 -30 -10 -70z"/>
<path d="M1047 1267 c-50 -42 -43 -137 12 -167 35 -18 87 -12 120 16 26 21 31
33 31 69 0 64 -37 105 -93 105 -28 -1 -51 -8 -70 -23z m112 -7 c10 -5 24 -23
31 -40 35 -86 -83 -156 -140 -82 -57 72 27 166 109 122z"/>
<path d="M1088 1229 c-25 -14 -24 -65 1 -79 27 -14 37 -13 55 6 20 20 20 34 1
34 -14 0 -19 11 -16 38 2 14 -17 15 -41 1z m30 -48 c3 -8 -1 -12 -9 -9 -7 2
-15 10 -17 17 -3 8 1 12 9 9 7 -2 15 -10 17 -17z"/>
<path d="M2114 1238 l-19 -23 23 19 c21 18 27 26 19 26 -2 0 -12 -10 -23 -22z"/>
<path d="M680 910 c0 -5 5 -10 12 -10 6 0 19 -6 27 -14 18 -16 116 -50 171
-60 19 -3 4 5 -35 17 -38 13 -94 36 -122 50 -29 15 -53 23 -53 17z"/>
<path d="M943 813 c9 -2 23 -2 30 0 6 3 -1 5 -18 5 -16 0 -22 -2 -12 -5z"/>
<path d="M1000 804 c34 -7 110 -9 110 -2 0 5 -28 7 -62 7 -35 -1 -56 -3 -48
-5z"/>
<path d="M840 1726 c0 -54 4 -76 13 -76 16 0 14 143 -2 148 -7 2 -11 -22 -11
-72z"/>
<path d="M910 1726 c0 -62 3 -76 15 -76 13 0 15 12 13 72 -2 46 -7 73 -15 76
-10 3 -13 -16 -13 -72z"/>
<path d="M989 1798 c-1 -2 -3 -36 -4 -75 -1 -54 2 -73 12 -73 16 0 19 135 3
145 -5 3 -11 5 -11 3z"/>
<path d="M530 1725 c0 -43 4 -75 10 -75 6 0 10 32 10 75 0 43 -4 75 -10 75 -6
0 -10 -32 -10 -75z"/>
<path d="M600 1726 c0 -54 4 -76 13 -76 16 0 14 143 -2 148 -7 2 -11 -22 -11
-72z"/>
<path d="M676 1793 c-3 -3 -6 -37 -6 -75 0 -54 3 -68 15 -68 12 0 15 14 15 69
0 65 -8 90 -24 74z"/>
<path d="M1778 1725 c-2 -55 0 -75 10 -75 8 0 12 22 12 75 0 98 -17 97 -22 0z"/>
<path d="M1857 1793 c-11 -10 -8 -143 3 -143 6 0 10 32 10 75 0 75 -1 81 -13
68z"/>
<path d="M1920 1726 c0 -54 4 -76 13 -76 16 0 14 143 -2 148 -7 2 -11 -22 -11
-72z"/>
<path d="M1156 1793 c-3 -3 -6 -37 -6 -75 0 -54 3 -68 15 -68 12 0 15 14 15
69 0 65 -8 90 -24 74z"/>
<path d="M1226 1793 c-3 -3 -6 -37 -6 -75 0 -54 3 -68 15 -68 12 0 15 14 15
69 0 65 -8 90 -24 74z"/>
<path d="M1298 1725 c-2 -55 0 -75 10 -75 8 0 12 22 12 75 0 98 -17 97 -22 0z"/>
</g>
</svg>
