<?xml version="1.0" standalone="no"?>
<!DOCTYPE svg PUBLIC "-//W3C//DTD SVG 20010904//EN"
 "http://www.w3.org/TR/2001/REC-SVG-20010904/DTD/svg10.dtd">
<svg version="1.0" xmlns="http://www.w3.org/2000/svg"
 width="300.000000pt" height="150.000000pt" viewBox="0 0 300.000000 150.000000"
 preserveAspectRatio="xMidYMid meet">
<metadata>
Created by potrace 1.10, written by Peter Selinger 2001-2011
</metadata>
<g transform="translate(0.000000,150.000000) scale(0.100000,-0.100000)"
fill="#000000" stroke="none">
<path d="M272 1175 c-53 -27 -122 -102 -122 -133 0 -8 -16 -33 -36 -55 -60
-66 -79 -119 -79 -222 0 -103 19 -156 79 -222 24 -27 36 -50 36 -70 0 -26 6
-31 67 -55 60 -23 68 -30 76 -60 14 -54 22 -58 108 -58 76 0 80 1 89 25 5 14
14 25 21 25 6 0 9 16 8 40 -4 56 18 77 66 63 45 -14 70 -7 84 23 15 34 14 44
-9 88 -18 37 -18 40 -2 70 13 23 17 56 17 131 0 106 -12 143 -71 221 -13 17
-24 39 -24 50 -1 37 -38 102 -75 130 -32 24 -49 29 -109 32 -61 3 -78 0 -124
-23z m191 -9 c18 -7 43 -25 56 -40 24 -26 24 -26 3 -26 -12 0 -22 -5 -22 -10
0 -6 6 -10 13 -9 29 4 37 -3 48 -43 24 -91 -22 -232 -85 -262 -19 -9 -56 -16
-83 -15 -26 0 -55 -1 -63 -2 -50 -8 -70 2 -91 42 -12 25 -18 51 -15 64 5 19 3
22 -14 18 -29 -8 -50 14 -50 53 0 44 35 57 61 23 10 -13 21 -21 24 -17 4 3 8
42 10 85 2 43 3 81 4 86 1 4 22 21 48 37 52 33 103 39 156 16z m-168 -4 c-33
-28 -87 -63 -91 -60 -6 7 26 34 61 52 33 17 44 20 30 8z m-59 -132 c0 -56 -1
-58 -18 -43 -9 8 -24 13 -33 10 -26 -11 -20 58 7 77 38 27 45 20 44 -44z m-92
-74 c-7 -45 15 -96 40 -96 13 0 38 -58 30 -71 -2 -4 -29 -22 -59 -39 -59 -34
-64 -46 -41 -101 7 -19 17 -50 21 -69 7 -35 7 -35 -13 -17 -66 59 -89 233 -45
330 18 39 61 104 70 106 2 1 0 -19 -3 -43z m502 -88 c19 -54 18 -153 -2 -212
-13 -38 -24 -51 -50 -62 -18 -8 -35 -14 -37 -14 -3 0 6 29 19 65 31 84 30 93
-6 130 l-30 31 20 52 c11 29 20 69 20 89 l0 38 26 -38 c14 -21 32 -56 40 -79z
m-71 -173 c-10 -66 -41 -125 -65 -125 l-22 0 23 36 c26 43 34 120 14 150 -22
33 -5 37 28 7 25 -25 28 -33 22 -68z m-317 45 c17 -16 37 -30 45 -30 8 0 17
-13 20 -29 3 -16 12 -35 20 -42 7 -8 12 -19 10 -25 -2 -6 11 -17 29 -25 l33
-14 -45 -7 c-25 -3 -58 -7 -73 -7 -28 -1 -28 -1 -21 45 5 34 4 45 -5 40 -6 -4
-11 -25 -11 -46 0 -27 -6 -42 -17 -49 -16 -9 -16 -10 5 -11 12 0 22 -4 22 -10
0 -5 -5 -10 -10 -10 -7 0 -7 -6 -2 -17 5 -10 12 -33 15 -51 6 -31 5 -33 -16
-26 -12 3 -39 15 -59 25 -35 18 -38 23 -38 62 0 37 -9 80 -35 172 -5 16 5 27
47 53 29 17 54 32 55 32 1 0 15 -13 31 -30z m53 0 c5 0 9 -4 9 -9 0 -12 -38
-2 -47 12 -4 7 0 8 11 4 10 -4 22 -7 27 -7z m108 -25 c2 -3 -1 -5 -8 -5 -8 0
-7 -5 4 -16 8 -9 22 -14 30 -11 18 7 32 -11 38 -48 l4 -30 2 33 c1 29 17 42
34 26 9 -9 -33 -74 -48 -74 -7 0 -19 15 -25 34 -16 50 -34 62 -62 42 -12 -9
-28 -16 -35 -16 -14 0 -28 62 -19 85 5 14 9 14 43 0 20 -9 39 -18 42 -20z m35
24 c-6 -11 -44 -12 -44 -1 0 4 11 8 25 8 14 1 22 -2 19 -7z m66 -19 c0 -27 -3
-30 -30 -30 -25 0 -29 4 -27 21 7 45 57 53 57 9z m-70 -10 c0 -5 -4 -10 -10
-10 -5 0 -10 5 -10 10 0 6 5 10 10 10 6 0 10 -4 10 -10z m-16 -86 c9 -20 15
-39 12 -41 -3 -4 -63 22 -75 33 -5 5 30 44 39 44 3 0 14 -16 24 -36z m216 -84
c13 -48 0 -80 -33 -80 -18 0 -19 2 -7 11 11 8 7 9 -17 4 -31 -6 -33 -5 -33 23
0 17 -2 37 -5 44 -4 9 5 18 22 25 51 20 61 16 73 -27z m-190 -52 c0 -35 3 -87
6 -115 l7 -53 -71 0 c-83 0 -81 -1 -106 107 -27 122 -30 119 97 122 l67 1 0
-62z m40 28 c0 -19 3 -41 6 -50 4 -11 1 -16 -11 -16 -14 0 -16 7 -13 35 2 19
0 35 -4 35 -4 0 -8 7 -8 15 0 8 7 15 15 15 10 0 15 -10 15 -34z m45 -2 c3 -20
4 -38 1 -41 -11 -11 -24 9 -28 42 -5 47 18 47 27 -1z m-45 -109 c0 -14 0 -28
1 -32 0 -4 -4 -9 -10 -11 -7 -2 -11 11 -11 32 0 20 5 36 10 36 6 0 10 -11 10
-25z"/>
<path d="M332 1084 c-12 -8 -22 -22 -22 -31 0 -14 4 -13 20 5 12 12 28 22 36
22 8 0 12 5 9 10 -8 14 -17 13 -43 -6z"/>
<path d="M395 1013 c6 -29 4 -31 -16 -26 -15 4 -20 3 -15 -5 10 -16 56 -15 56
1 -1 6 -7 23 -16 37 l-15 25 6 -32z"/>
<path d="M536 1016 c5 -20 3 -27 -4 -22 -6 3 -14 1 -17 -5 -5 -7 1 -9 16 -7
29 4 33 19 14 43 -15 19 -15 19 -9 -9z"/>
<path d="M460 1019 c0 -9 14 -35 30 -57 17 -23 30 -44 30 -46 0 -2 -14 -9 -30
-16 -24 -10 -33 -10 -45 0 -11 9 -15 9 -15 1 0 -28 65 -25 94 5 15 14 14 18
-6 46 -13 16 -31 42 -40 56 -12 18 -18 22 -18 11z"/>
<path d="M181 933 c1 -17 3 -21 6 -10 5 20 19 22 27 5 3 -7 5 -4 3 7 -1 11
-10 21 -20 23 -13 3 -17 -3 -16 -25z"/>
<path d="M513 877 c-25 -11 -31 -27 -9 -27 14 0 42 28 35 34 -2 2 -14 -1 -26
-7z"/>
<path d="M401 864 c5 -6 25 -14 45 -16 50 -6 37 16 -14 23 -32 4 -39 2 -31 -7z"/>
<path d="M380 853 c0 -32 88 -60 105 -33 4 6 -9 10 -31 10 -21 0 -46 7 -56 17
-10 9 -18 12 -18 6z"/>
<path d="M290 840 c0 -13 57 -76 63 -70 3 3 -10 22 -29 42 -19 21 -34 33 -34
28z"/>
<path d="M190 1055 c-6 -8 -10 -20 -8 -28 2 -9 11 -5 26 15 17 20 20 28 9 28
-8 0 -20 -7 -27 -15z"/>
<path d="M185 713 c-16 -8 -31 -17 -33 -18 -2 -1 2 -22 8 -46 6 -24 15 -73 20
-109 l9 -65 -4 70 c-3 39 -7 88 -11 110 -5 39 -4 41 33 57 21 9 31 16 23 17
-8 0 -28 -7 -45 -16z"/>
<path d="M292 595 c0 -16 2 -22 5 -12 2 9 2 23 0 30 -3 6 -5 -1 -5 -18z"/>
<path d="M584 546 c-17 -13 -18 -15 -2 -21 10 -4 23 -5 30 -2 7 3 2 6 -11 6
-24 1 -24 1 -5 16 10 8 16 15 13 15 -3 0 -14 -6 -25 -14z"/>
<path d="M593 503 c9 -2 23 -2 30 0 6 3 -1 5 -18 5 -16 0 -22 -2 -12 -5z"/>
<path d="M1840 940 c0 -6 11 -15 25 -20 l25 -10 0 -165 c0 -158 -1 -165 -20
-165 -11 0 -20 -4 -20 -9 0 -5 36 -11 80 -13 55 -2 80 1 80 8 0 7 -9 14 -21
17 -17 5 -20 12 -17 43 2 21 8 39 13 41 6 2 26 -22 44 -52 l33 -55 144 0 c130
0 178 9 124 23 -18 5 -20 14 -20 116 l0 111 -65 0 c-68 0 -82 -9 -40 -28 24
-11 25 -15 25 -102 0 -85 -1 -91 -22 -99 -36 -13 -53 -1 -107 76 l-51 72 33
24 c17 14 42 28 55 32 42 13 22 25 -43 25 -64 0 -86 -12 -43 -24 22 -5 21 -8
-22 -51 -24 -25 -48 -45 -53 -45 -4 0 -7 59 -5 130 l3 130 -67 0 c-40 0 -68
-4 -68 -10z m100 -102 c0 -46 3 -120 7 -165 5 -72 4 -83 -10 -83 -14 0 -16 22
-19 165 -2 127 0 165 10 165 8 0 12 -23 12 -82z m340 -154 c0 -72 -3 -95 -12
-92 -9 3 -14 34 -16 96 -2 77 0 92 13 92 12 0 15 -16 15 -96z m-214 -26 c47
-69 47 -68 27 -68 -18 0 -73 75 -73 99 0 22 18 10 46 -31z"/>
<path d="M2220 930 c-6 -12 -8 -30 -5 -40 7 -24 52 -37 74 -23 20 13 26 50 11
69 -19 21 -67 18 -80 -6z m55 -21 c10 -15 -1 -23 -20 -15 -9 3 -13 10 -10 16
8 13 22 13 30 -1z"/>
<path d="M970 912 c0 -4 14 -13 31 -19 l31 -12 -4 -134 c-3 -116 -6 -138 -22
-156 -20 -22 -51 -28 -61 -11 -3 6 1 17 9 26 30 29 14 84 -24 84 -55 0 -72
-77 -25 -117 32 -28 100 -31 150 -7 53 25 65 63 65 203 0 120 0 121 25 127 54
13 20 24 -75 24 -55 0 -100 -4 -100 -8z m120 -146 c0 -103 -3 -127 -18 -145
-17 -21 -17 -17 -17 123 0 132 2 146 18 146 15 0 17 -13 17 -124z m-152 -133
c-5 -25 -28 -28 -28 -4 0 12 6 21 16 21 9 0 14 -7 12 -17z"/>
<path d="M1280 802 c-19 -9 -45 -32 -57 -51 -59 -88 8 -201 120 -201 42 0 70
12 104 43 32 28 18 41 -17 15 -57 -42 -121 -18 -135 50 l-7 32 92 0 92 0 -7
33 c-11 50 -24 68 -60 83 -46 19 -83 18 -125 -4z m78 -14 c5 -7 12 -26 14 -43
3 -29 1 -30 -41 -33 l-44 -3 7 32 c10 53 40 75 64 47z m72 -55 c0 -24 -25 -9
-28 17 -3 21 -2 22 12 11 9 -7 16 -20 16 -28z m-160 -43 c0 -27 4 -60 10 -75
9 -23 8 -25 -10 -15 -38 20 -53 87 -29 131 16 31 29 12 29 -41z"/>
<path d="M1680 813 c-8 -3 -25 -15 -37 -26 l-23 -20 0 21 c0 20 -5 22 -65 22
-37 0 -65 -4 -65 -10 0 -5 4 -10 9 -10 5 0 17 -7 25 -16 12 -12 16 -36 16
-100 0 -83 -1 -85 -27 -97 -26 -11 -21 -12 52 -17 78 -5 105 3 71 22 -13 7
-16 25 -16 88 0 73 2 81 24 95 19 13 29 14 45 5 19 -10 21 -20 21 -100 0 -73
-3 -90 -15 -90 -8 0 -15 -6 -15 -12 0 -10 21 -12 80 -10 46 2 78 8 75 13 -4 5
-12 9 -20 9 -10 0 -14 24 -17 96 -3 91 -5 97 -31 120 -27 23 -55 29 -87 17z
m-86 -51 c-1 -6 -2 -48 -2 -92 -2 -64 -5 -80 -17 -80 -12 0 -15 17 -15 96 0
86 2 95 18 92 9 -2 17 -9 16 -16z m164 -80 c2 -59 -1 -92 -8 -92 -6 0 -10 31
-10 79 0 44 -3 87 -7 97 -4 12 -2 15 8 12 10 -3 15 -28 17 -96z"/>
<path d="M2550 809 c-13 -5 -33 -18 -44 -27 -18 -16 -18 -16 -12 6 7 21 5 22
-58 22 -69 0 -80 -7 -46 -28 18 -11 20 -23 20 -107 0 -88 -1 -95 -20 -95 -11
0 -20 -4 -20 -9 0 -5 36 -11 80 -13 59 -2 80 0 80 10 0 6 -7 12 -15 12 -8 0
-15 5 -16 10 0 6 0 42 -1 82 0 63 3 74 22 90 27 22 34 22 54 2 22 -22 23 -184
2 -184 -8 0 -17 -4 -21 -9 -3 -5 29 -11 75 -13 55 -2 80 1 80 8 0 7 -9 14 -20
17 -18 5 -20 14 -20 95 0 71 -4 94 -17 111 -21 25 -69 34 -103 20z m-80 -124
c0 -76 -3 -95 -14 -95 -12 0 -15 21 -18 95 -3 85 -1 95 15 95 15 0 17 -11 17
-95z m168 -3 c2 -59 -1 -92 -8 -92 -6 0 -10 29 -10 73 0 39 -3 83 -7 96 -4 18
-2 22 8 19 10 -3 15 -28 17 -96z"/>
<path d="M2792 805 c-43 -19 -59 -59 -38 -101 11 -25 26 -36 68 -49 62 -20 82
-39 67 -66 -20 -39 -108 -10 -124 41 -4 11 -12 20 -18 20 -8 0 -11 -16 -9 -50
4 -46 15 -65 24 -40 2 7 14 7 36 -1 81 -28 172 12 172 76 0 39 -22 61 -85 83
-60 21 -78 47 -51 68 26 18 55 10 87 -27 14 -16 29 -29 32 -29 4 0 6 20 5 45
-1 30 -6 45 -15 45 -7 0 -13 -4 -13 -9 0 -6 -12 -6 -32 0 -44 12 -67 11 -106
-6z m93 -123 c42 -14 51 -22 53 -45 4 -35 -3 -34 -34 2 -14 17 -35 33 -47 36
-66 19 -77 27 -77 58 l0 31 28 -32 c15 -17 49 -39 77 -50z"/>
</g>
</svg>
