<?xml version="1.0" standalone="no"?>
<!DOCTYPE svg PUBLIC "-//W3C//DTD SVG 20010904//EN"
 "http://www.w3.org/TR/2001/REC-SVG-20010904/DTD/svg10.dtd">
<svg version="1.0" xmlns="http://www.w3.org/2000/svg"
 width="300.000000pt" height="160.000000pt" viewBox="0 0 300.000000 160.000000"
 preserveAspectRatio="xMidYMid meet">
<metadata>
Created by potrace 1.10, written by Peter Selinger 2001-2011
</metadata>
<g transform="translate(0.000000,160.000000) scale(0.100000,-0.100000)"
fill="#000000" stroke="none">
<path d="M1304 1376 c-94 -46 -174 -88 -177 -93 -11 -17 -87 -354 -87 -383 0
-19 33 -68 116 -171 63 -79 123 -150 132 -157 23 -17 401 -17 425 1 9 6 68 77
131 157 81 101 116 153 116 171 0 28 -77 365 -87 382 -10 17 -352 177 -376
176 -12 0 -99 -37 -193 -83z m325 9 c36 -18 97 -47 135 -65 38 -17 76 -38 84
-47 8 -8 28 -74 44 -146 54 -240 53 -238 37 -248 -8 -5 -9 -9 -4 -9 7 0 7 -3
0 -8 -5 -4 -32 -36 -60 -72 -27 -36 -56 -71 -63 -79 -8 -8 -32 -38 -53 -67
-22 -28 -50 -55 -62 -58 -32 -8 -370 -7 -383 2 -12 8 -73 77 -119 136 -16 21
-51 66 -77 99 -27 33 -48 69 -48 81 0 11 14 77 30 146 17 69 32 136 35 150 13
60 35 97 49 83 3 -4 6 -2 6 4 0 6 39 28 88 49 48 21 93 42 99 47 7 5 38 19 69
32 65 27 87 23 193 -30z"/>
<path d="M1472 1348 c-7 -7 -12 -27 -12 -45 0 -27 -5 -35 -27 -43 -16 -6 -49
-21 -76 -35 -40 -21 -50 -23 -67 -13 -11 7 -20 16 -20 20 0 14 -38 8 -54 -8
-22 -22 -20 -30 13 -60 29 -26 29 -26 15 -72 -7 -26 -14 -63 -14 -83 0 -32 -3
-36 -37 -45 -49 -12 -63 -36 -38 -64 11 -12 26 -18 37 -15 10 3 26 7 36 10 12
3 21 -4 31 -26 7 -17 31 -47 52 -68 36 -34 38 -39 24 -57 -19 -25 -19 -58 0
-74 20 -16 47 -5 65 27 15 27 19 28 101 29 84 1 85 1 98 -27 14 -32 46 -46 66
-29 20 16 19 49 -1 72 -16 17 -15 20 17 54 19 20 43 47 55 59 11 12 18 28 16
35 -4 12 16 11 60 -5 7 -2 22 2 32 10 28 21 8 61 -36 73 -30 7 -33 12 -36 48
-2 21 -9 53 -17 71 -20 42 -19 50 10 69 35 23 35 71 1 80 -17 4 -32 0 -47 -15
-28 -26 -31 -26 -77 3 -20 12 -48 27 -62 31 -30 9 -40 22 -40 56 0 29 -17 49
-40 49 -9 0 -21 -5 -28 -12z m43 -48 c0 -45 8 -54 55 -64 22 -5 51 -21 102
-58 15 -10 22 -8 47 16 18 17 36 26 45 23 24 -9 19 -24 -14 -43 -38 -23 -44
-39 -24 -69 8 -12 18 -52 22 -86 l7 -64 43 -9 c31 -7 42 -13 40 -25 -4 -17
-12 -17 -65 -6 -29 7 -33 5 -46 -27 -8 -20 -34 -54 -58 -77 l-44 -42 18 -30
c9 -17 17 -37 17 -45 0 -28 -29 -13 -47 24 -13 27 -23 36 -38 34 -24 -4 -122
-4 -150 0 -15 2 -25 -7 -38 -34 -18 -37 -47 -52 -47 -24 0 8 8 28 17 44 l17
30 -47 51 c-26 28 -52 62 -57 77 -9 23 -14 26 -43 19 -53 -11 -61 -11 -65 6
-2 12 9 18 40 25 l43 9 7 62 c4 34 14 75 22 92 14 27 14 31 0 45 -8 9 -24 21
-35 26 -23 13 -25 28 -3 37 9 3 26 -5 43 -21 l28 -27 58 36 c32 19 68 35 80
35 31 0 45 19 38 51 -7 35 3 62 20 56 7 -2 12 -21 12 -47z"/>
<path d="M1403 1169 c-24 -12 -43 -24 -43 -28 0 -8 84 -61 98 -61 5 0 12 25
14 55 4 64 -3 67 -69 34z m47 -24 c0 -27 -18 -33 -38 -13 -10 10 -7 15 10 25
13 7 24 12 26 13 1 0 2 -11 2 -25z"/>
<path d="M1528 1135 c2 -30 9 -55 14 -55 14 0 98 53 98 62 0 8 -82 48 -101 48
-11 0 -13 -12 -11 -55z m72 5 c-1 -3 -12 -13 -25 -23 l-25 -18 0 35 c0 33 1
34 25 23 14 -7 25 -14 25 -17z"/>
<path d="M1312 1061 c-7 -21 -12 -50 -12 -63 l0 -25 49 16 c27 9 53 19 57 24
7 7 -63 87 -76 87 -4 0 -12 -17 -18 -39z m46 -29 c2 -15 -2 -22 -12 -22 -11 0
-16 9 -16 26 0 31 23 28 28 -4z"/>
<path d="M1627 1062 c-20 -21 -37 -41 -37 -45 0 -9 32 -22 78 -32 30 -6 32 -5
32 20 0 23 -24 95 -32 95 -2 0 -21 -17 -41 -38z m46 -23 c6 -22 -24 -42 -31
-21 -2 7 -9 9 -14 6 -7 -4 -8 -2 -4 4 4 7 14 12 22 12 8 0 12 5 9 10 -3 6 -2
10 3 10 5 0 12 -9 15 -21z"/>
<path d="M1477 1024 c-13 -13 -7 -52 8 -58 27 -10 46 5 43 33 -3 26 -35 41
-51 25z"/>
<path d="M1574 938 c-6 -10 27 -108 36 -108 9 0 56 52 68 76 10 19 7 21 -44
31 -31 5 -57 6 -60 1z m66 -28 c13 -8 13 -11 0 -24 -18 -19 -46 -5 -37 18 7
18 16 20 37 6z"/>
<path d="M1338 933 c-27 -4 -27 -5 -14 -31 15 -28 64 -78 69 -71 7 8 37 89 37
99 0 10 -39 11 -92 3z m51 -22 c16 -10 6 -31 -14 -31 -14 0 -27 24 -18 34 8 8
15 7 32 -3z"/>
<path d="M1483 888 c-12 -15 -43 -74 -43 -83 0 -3 27 -5 60 -5 33 0 60 3 60 8
0 14 -45 85 -56 89 -6 2 -16 -2 -21 -9z m35 -43 c11 -24 10 -25 -18 -25 -34 0
-35 2 -18 30 17 26 22 25 36 -5z"/>
<path d="M760 230 c0 -102 1 -110 19 -110 16 0 20 8 23 37 l3 38 23 -37 c17
-27 31 -38 48 -38 28 0 27 3 -14 58 l-25 33 28 29 29 30 -24 0 c-14 0 -34 -11
-47 -27 l-22 -28 -1 63 c0 55 -2 62 -20 62 -19 0 -20 -7 -20 -110z m27 -32
c-3 -8 -6 -5 -6 6 -1 11 2 17 5 13 3 -3 4 -12 1 -19z"/>
<path d="M1087 333 c-4 -3 -7 -50 -7 -104 0 -105 2 -109 60 -109 45 0 75 31
75 78 0 50 -19 72 -61 72 -32 0 -34 2 -34 35 0 33 -16 46 -33 28z m82 -111
c12 -23 4 -59 -16 -66 -24 -10 -33 3 -33 45 0 32 3 39 20 39 10 0 24 -8 29
-18z"/>
<path d="M1858 228 c4 -91 14 -108 64 -108 22 0 28 5 28 21 0 15 -5 19 -22 17
-20 -3 -24 3 -29 40 -5 41 -5 42 23 42 18 0 28 5 28 15 0 10 -10 15 -29 15
-24 0 -28 3 -24 20 4 16 0 20 -18 20 -24 0 -24 -1 -21 -82z"/>
<path d="M2013 269 c-45 -16 -59 -93 -23 -129 32 -32 121 -24 100 9 -4 8 -15
11 -25 7 -18 -6 -55 9 -55 23 0 5 20 6 44 4 50 -6 56 0 44 44 -9 35 -49 55
-85 42z m51 -44 c4 -11 -2 -15 -24 -15 -29 0 -38 9 -23 23 12 12 41 7 47 -8z"/>
<path d="M920 204 c6 -70 16 -84 62 -84 53 0 58 7 58 81 0 62 -2 69 -20 69
-18 0 -20 -7 -20 -61 0 -52 -2 -60 -16 -55 -9 3 -18 6 -20 6 -2 0 -4 25 -4 55
0 51 -2 55 -23 55 -22 0 -22 -2 -17 -66z"/>
<path d="M1274 262 c-16 -11 -34 -48 -34 -72 0 -11 11 -32 25 -46 20 -20 34
-25 63 -22 25 2 38 8 40 20 3 14 -4 17 -31 16 -19 -1 -39 2 -45 6 -25 15 -10
23 38 18 47 -4 50 -3 50 20 0 39 -27 68 -63 68 -18 0 -37 -4 -43 -8z m64 -39
c2 -9 -7 -13 -27 -13 -23 0 -29 4 -24 16 6 17 44 15 51 -3z"/>
<path d="M1417 263 c-4 -3 -7 -37 -7 -75 0 -61 2 -68 20 -68 18 0 20 7 20 61
0 60 1 61 24 57 18 -4 26 0 29 14 4 15 -1 18 -37 18 -24 0 -46 -3 -49 -7z"/>
<path d="M1530 195 c0 -68 2 -75 20 -75 18 0 20 7 20 60 0 53 2 60 20 60 21 0
23 -7 20 -77 -1 -40 0 -43 25 -43 27 0 27 1 23 59 -5 77 -18 91 -79 91 l-49 0
0 -75z"/>
<path d="M1706 248 c-22 -31 -20 -84 4 -108 32 -32 121 -24 100 9 -4 8 -15 11
-25 7 -18 -6 -55 9 -55 24 0 5 16 6 35 3 53 -9 66 0 55 38 -11 39 -25 49 -67
49 -22 0 -37 -7 -47 -22z m78 -23 c4 -11 -2 -15 -24 -15 -29 0 -38 9 -23 23
12 12 41 7 47 -8z"/>
<path d="M2142 258 c-22 -22 -13 -48 23 -69 46 -27 45 -43 -1 -35 -31 6 -35 5
-32 -11 2 -12 14 -19 35 -21 75 -7 103 54 38 85 -43 20 -46 37 -5 31 24 -4 30
-1 30 14 0 14 -8 18 -38 18 -21 0 -43 -5 -50 -12z"/>
</g>
</svg>
