<?xml version="1.0" standalone="no"?>
<!DOCTYPE svg PUBLIC "-//W3C//DTD SVG 20010904//EN"
 "http://www.w3.org/TR/2001/REC-SVG-20010904/DTD/svg10.dtd">
<svg version="1.0" xmlns="http://www.w3.org/2000/svg"
 width="300.000000pt" height="150.000000pt" viewBox="0 0 300.000000 150.000000"
 preserveAspectRatio="xMidYMid meet">
<metadata>
Created by potrace 1.10, written by Peter Selinger 2001-2011
</metadata>
<g transform="translate(0.000000,150.000000) scale(0.100000,-0.100000)"
fill="#000000" stroke="none">
<path d="M78 1113 l3 -168 97 -57 c53 -31 118 -69 145 -83 l47 -27 0 169 0
168 -144 83 c-79 45 -145 82 -147 82 -2 0 -3 -75 -1 -167z m74 103 c21 -12 35
-25 32 -28 -3 -3 1 -5 8 -4 7 0 46 -17 86 -39 l72 -39 0 -143 c0 -79 -2 -143
-5 -143 -8 0 -69 32 -75 39 -3 3 -28 18 -55 33 -28 14 -49 31 -47 38 1 6 -3 8
-9 5 -12 -8 -59 14 -59 27 0 5 6 6 13 2 9 -6 9 -4 0 7 -14 14 -19 269 -5 269
4 0 24 -11 44 -24z"/>
<path d="M868 1012 l-148 -86 0 -169 c0 -157 1 -167 18 -158 9 5 75 43 145 84
l128 74 2 171 c1 95 2 172 2 171 0 -1 -66 -40 -147 -87z m120 -104 l-3 -141
-50 -27 c-27 -15 -77 -44 -110 -64 -51 -31 -60 -34 -68 -20 -5 8 -7 72 -5 140
3 113 5 127 23 137 66 40 175 94 175 89 0 -4 5 1 11 11 24 40 29 13 27 -125z"/>
<path d="M400 926 c0 -161 1 -166 23 -179 31 -20 269 -157 271 -157 0 0 -1 77
-4 171 l-5 170 -130 76 c-72 41 -136 77 -142 80 -10 4 -13 -32 -13 -161z m170
50 l95 -53 3 -142 c2 -106 -1 -141 -10 -141 -6 0 -41 17 -77 39 -36 21 -86 49
-111 62 l-45 24 -3 139 c-2 125 -1 138 13 126 13 -11 14 -10 9 5 -6 15 -4 16
12 6 10 -7 62 -36 114 -65z"/>
<path d="M430 780 c0 -5 5 -10 11 -10 5 0 7 5 4 10 -3 6 -8 10 -11 10 -2 0 -4
-4 -4 -10z"/>
<path d="M2075 905 c-16 -15 -25 -36 -25 -55 0 -23 -4 -30 -20 -30 -15 0 -20
-7 -20 -25 0 -18 5 -25 20 -25 19 0 20 -7 20 -95 l0 -95 30 0 30 0 0 95 0 95
29 0 c23 0 30 5 33 25 5 23 2 25 -29 25 -32 0 -34 2 -31 28 3 24 7 27 36 26
27 -2 32 1 32 21 0 42 -67 49 -105 10z m25 -110 c0 -8 -5 -17 -11 -21 -16 -9
-30 18 -17 33 12 15 28 8 28 -12z"/>
<path d="M1090 880 c0 -29 2 -30 45 -30 l45 0 0 -135 0 -135 30 0 30 0 0 135
0 135 48 0 c47 0 49 1 49 30 l0 30 -124 0 -123 0 0 -30z m135 -20 c-3 -5 -10
-10 -16 -10 -5 0 -9 5 -9 10 0 6 7 10 16 10 8 0 12 -4 9 -10z"/>
<path d="M1312 800 c-26 -24 -37 -76 -28 -138 9 -67 33 -87 104 -87 74 1 92 8
85 35 -5 18 -11 20 -52 14 -50 -6 -81 10 -81 43 0 13 12 15 71 11 l71 -4 -4
55 c-6 69 -30 91 -97 91 -33 0 -54 -6 -69 -20z m96 -32 c7 -7 12 -20 12 -30 0
-14 -8 -18 -40 -18 -44 0 -52 16 -24 44 19 19 36 20 52 4z m-73 -67 c3 -5 1
-12 -5 -16 -5 -3 -10 1 -10 9 0 18 6 21 15 7z"/>
<path d="M1515 700 l0 -120 33 0 32 0 0 80 c0 78 0 80 30 95 21 11 30 23 30
40 0 29 -16 32 -48 9 -20 -14 -22 -14 -22 0 0 11 -9 16 -27 16 l-28 0 0 -120z
m48 55 c-7 -21 -13 -19 -13 6 0 11 4 18 10 14 5 -3 7 -12 3 -20z"/>
<path d="M1660 700 l0 -120 33 0 32 0 -3 75 -4 75 37 21 c29 17 34 26 29 43
-9 30 -11 31 -39 12 -22 -14 -25 -15 -25 -1 0 10 -10 15 -30 15 l-30 0 0 -120z
m55 71 c3 -5 1 -12 -5 -16 -5 -3 -10 1 -10 9 0 18 6 21 15 7z"/>
<path d="M1817 813 c-4 -3 -7 -14 -7 -24 0 -15 10 -19 58 -21 54 -3 57 -4 60
-30 3 -27 2 -28 -46 -28 -58 0 -82 -20 -82 -68 0 -48 33 -76 79 -67 20 4 53 7
74 6 l39 -2 -4 107 c-4 127 -9 134 -103 134 -34 0 -65 -3 -68 -7z m113 -162
c0 -20 -18 -31 -51 -31 -14 0 -19 7 -19 25 0 22 4 25 35 25 28 0 35 -4 35 -19z"/>
<path d="M2215 795 c-22 -21 -25 -33 -25 -93 0 -54 4 -75 20 -95 41 -52 158
-40 180 18 13 34 13 106 0 141 -16 41 -39 53 -98 54 -43 0 -57 -5 -77 -25z
m113 -37 c18 -18 15 -103 -4 -122 -18 -19 -28 -20 -55 -6 -15 9 -19 22 -19 69
0 32 3 61 7 64 11 11 58 8 71 -5z"/>
<path d="M2430 700 l0 -120 30 0 30 0 0 79 c0 78 0 79 30 91 24 10 30 19 30
41 0 33 -10 36 -45 13 -23 -15 -25 -15 -25 0 0 10 -9 16 -25 16 l-25 0 0 -120z
m42 48 c-9 -9 -12 -7 -12 12 0 19 3 21 12 12 9 -9 9 -15 0 -24z"/>
<path d="M2575 700 l0 -120 33 0 32 0 0 84 0 84 31 11 c17 6 35 8 40 5 5 -3 9
-45 9 -95 l0 -89 30 0 30 0 0 84 0 84 31 11 c17 6 35 8 40 5 5 -3 9 -45 9 -95
l0 -89 30 0 30 0 0 108 c0 71 -4 112 -12 120 -16 16 -80 15 -114 0 -22 -10
-28 -10 -32 0 -2 7 -20 12 -42 12 -22 0 -51 -6 -66 -12 -22 -10 -28 -10 -32 0
-2 6 -13 12 -25 12 -21 0 -22 -4 -22 -120z m174 81 c7 -5 12 -14 9 -21 -2 -7
-10 -4 -22 9 -19 21 -12 28 13 12z m-132 -23 c-3 -8 -6 -5 -6 6 -1 11 2 17 5
13 3 -3 4 -12 1 -19z"/>
<path d="M400 553 l0 -168 38 -21 c20 -11 85 -49 144 -82 60 -34 109 -62 110
-62 2 0 2 76 0 168 l-3 168 -136 80 c-75 43 -141 81 -145 82 -4 2 -8 -72 -8
-165z m90 94 c108 -59 158 -92 153 -100 -4 -6 1 -8 10 -4 15 6 17 -7 17 -133
0 -76 -4 -141 -8 -144 -5 -3 -34 11 -66 30 -31 18 -59 34 -62 34 -2 0 -29 16
-59 36 l-55 37 0 138 c0 154 -5 147 70 106z"/>
</g>
</svg>
